<svg xmlns="http://www.w3.org/2000/svg" version="1.1" xmlns:xlink="http://www.w3.org/1999/xlink" xmlns:svgjs="http://svgjs.dev/svgjs" width="1000" height="176" viewBox="0 0 1000 176"><g transform="matrix(1,0,0,1,-0.6060487587126318,-0.4641396561082871)"><svg viewBox="0 0 396 70" data-background-color="#c8c8c8" preserveAspectRatio="xMidYMid meet" height="176" width="1000" xmlns="http://www.w3.org/2000/svg" xmlns:xlink="http://www.w3.org/1999/xlink"><g id="tight-bounds" transform="matrix(1,0,0,1,0.23999530845020445,0.18460099958852538)"><svg viewBox="0 0 395.52 69.63079589606531" height="69.63079589606531" width="395.52"><g><svg viewBox="0 0 550.3778218608966 96.89331962913907" height="69.63079589606531" width="395.52"><g transform="matrix(1,0,0,1,154.85782186089665,13.391189615894042)"><svg viewBox="0 0 395.52 70.11094039735099" height="70.11094039735099" width="395.52"><g><svg viewBox="0 0 395.52 70.11094039735099" height="70.11094039735099" width="395.52"><g><svg viewBox="0 0 395.52 70.11094039735099" height="70.11094039735099" width="395.52"><g transform="matrix(1,0,0,1,0,0)"><svg width="395.52" viewBox="0.320000022649765 -38.66999816894531 221.17999267578125 39.209999084472656" height="70.11094039735099" data-palette-color="#000000"><path d="M17.04 0L0.32-38.16 8.89-38.16 20.87-9.06 32.86-38.16 41.43-38.16 24.71 0 17.04 0ZM42.26 0L60.18-38.16 68.38-38.16 86.84 0 78.71 0 75.66-6.42 53.37-6.42 50.41 0 42.26 0ZM56.32-12.79L72.6-12.79 64.35-30.13 56.32-12.79ZM92.77 0L92.77-38.16 125.26-38.16 125.26-31.37 100.51-31.37 100.51-23.75 122.43-23.75 122.43-17.38 100.51-17.38 100.51-6.76 125.78-6.76 125.78 0 92.77 0ZM134.37 0L134.37-38.16 153.78-38.16Q158.17-38.16 161.39-37.24 164.62-36.33 166.74-34.59 168.86-32.86 169.9-30.37 170.94-27.88 170.94-24.73L170.94-24.73Q170.94-22.61 170.43-20.69 169.91-18.77 168.85-17.16 167.79-15.55 166.18-14.29 164.57-13.04 162.39-12.21L162.39-12.21 170.7 0 161.22 0 154.05-10.84 153.83-10.84 142.11-10.86 142.11 0 134.37 0ZM142.11-17.55L153.97-17.55Q156.17-17.55 157.82-18.07 159.47-18.58 160.58-19.51 161.69-20.43 162.24-21.77 162.79-23.1 162.79-24.73L162.79-24.73Q162.79-27.93 160.59-29.68 158.39-31.42 153.97-31.42L153.97-31.42 142.11-31.42 142.11-17.55ZM177.85-19.19L177.85-19.19Q177.85-23.51 179.43-27.1 181.02-30.69 183.89-33.26 186.76-35.84 190.77-37.26 194.79-38.67 199.67-38.67L199.67-38.67Q204.53-38.67 208.56-37.26 212.59-35.84 215.46-33.26 218.32-30.69 219.91-27.1 221.5-23.51 221.5-19.19L221.5-19.19Q221.5-14.84 219.91-11.22 218.32-7.59 215.46-4.98 212.59-2.37 208.56-0.92 204.53 0.54 199.67 0.54L199.67 0.54Q194.79 0.54 190.77-0.92 186.76-2.37 183.89-4.98 181.02-7.59 179.43-11.22 177.85-14.84 177.85-19.19ZM185.59-19.19L185.59-19.19Q185.59-16.24 186.65-13.87 187.71-11.5 189.6-9.83 191.49-8.15 194.07-7.25 196.65-6.35 199.67-6.35L199.67-6.35Q202.7-6.35 205.28-7.25 207.85-8.15 209.73-9.83 211.61-11.5 212.69-13.87 213.76-16.24 213.76-19.19L213.76-19.19Q213.76-22.14 212.69-24.49 211.61-26.83 209.73-28.45 207.85-30.08 205.28-30.93 202.7-31.79 199.67-31.79L199.67-31.79Q196.65-31.79 194.07-30.93 191.49-30.08 189.6-28.45 187.71-26.83 186.65-24.49 185.59-22.14 185.59-19.19Z" opacity="1" transform="matrix(1,0,0,1,0,0)" fill="#000000" class="undefined-text-0" data-fill-palette-color="primary" id="text-0"></path></svg></g></svg></g></svg></g></svg></g><g><svg viewBox="0 0 138.3063114956516 96.89331962913907" height="96.89331962913907" width="138.3063114956516"><g><svg xmlns="http://www.w3.org/2000/svg" xmlns:xlink="http://www.w3.org/1999/xlink" version="1.1" x="0" y="0" viewBox="5 18.399999618530273 90.06945037841797 63.099998474121094" enable-background="new 0 0 100 100" xml:space="preserve" height="96.89331962913907" width="138.3063114956516" class="icon-icon-0" data-fill-palette-color="accent" id="icon-0"><path d="M12.9 32c-2.8-0.9-5-3.1-5.8-5.9L5 18.4c0 0 22.2 14 54.1 18.9 2.6 0.4 4.7 2.2 5.5 4.7 2.4 7.9 9.3 24 24.7 19.3 9.3-2.9 4.9 11.3 3.5 15.2-0.1 0.4-0.6 0.4-0.8 0l-1.9-4.7c-0.1-0.1-0.3-0.1-0.4 0.1l-0.3 1.2c-0.7 2.5-2.4 4.5-4.8 5.5l-0.3 0.1-0.1-5.9c0-0.2-0.3-0.3-0.4-0.1L83.1 75c-0.9 2.9-3.3 5-6.2 5.7l0 0 2-8.1c0.1-0.2-0.3-0.4-0.4-0.2l-2.8 4.6c-1.2 2-3.2 3.4-5.5 3.9l-2.6 0.6 4.7-10.3c0.1-0.2-0.2-0.4-0.4-0.3l-4.8 5.2c-1.5 1.6-3.5 2.6-5.6 2.8l-5.4 0.5L65 69.3c0.2-0.2-0.1-0.5-0.3-0.3l-7.1 5.2c-1.6 1.1-3.5 1.7-5.4 1.7l-8.9-0.3 15.2-11.8c0.2-0.2 0-0.5-0.2-0.4l-15.9 6.8c-2.4 1-5.2 0.9-7.5-0.3l-6.6-3.5L52 57.5c0.3-0.1 0.2-0.5-0.1-0.4l-20.8 3.7c-2.3 0.4-4.7-0.2-6.6-1.6L16.2 53 45.9 50c0.5-0.1 0.5-0.8 0-0.9l-29.3-2.7c-3.2-0.3-5.9-2.3-7.2-5.2l-2.3-5.5 30.7 5.1c0.5 0.1 0.7-0.7 0.2-0.8L12.9 32z" fill="#000000" data-fill-palette-color="accent"></path></svg></g></svg></g></svg></g><defs></defs></svg><rect width="395.52" height="69.63079589606531" fill="none" stroke="none" visibility="hidden"></rect></g></svg></g></svg>